<mxfile host="Electron" modified="2023-05-15T18:58:51.501Z" agent="Mozilla/5.0 (Windows NT 10.0; Win64; x64) AppleWebKit/537.36 (KHTML, like Gecko) draw.io/21.2.8 Chrome/112.0.5615.165 Electron/24.2.0 Safari/537.36" etag="in3wFgS0l5z3pXA0sEWk" version="21.2.8" type="device">
  <diagram id="p1WFtV5cTaJLbCV86L4F" name="Page-1">
    <mxGraphModel dx="1276" dy="614" grid="1" gridSize="10" guides="1" tooltips="1" connect="1" arrows="1" fold="1" page="1" pageScale="1" pageWidth="1169" pageHeight="827" math="0" shadow="0">
      <root>
        <mxCell id="0" />
        <mxCell id="1" parent="0" />
        <mxCell id="OlgEAX7LOhgStRy0H8mc-7" value=":login.php" style="shape=umlLifeline;perimeter=lifelinePerimeter;whiteSpace=wrap;html=1;container=0;collapsible=0;recursiveResize=0;outlineConnect=0;" parent="1" vertex="1">
          <mxGeometry x="455" y="210" width="100" height="270" as="geometry" />
        </mxCell>
        <mxCell id="BHGGA8FH1MstIcf6RSHf-21" value="click verify" style="html=1;verticalAlign=bottom;endArrow=block;rounded=0;elbow=vertical;entryX=-0.44;entryY=0.086;entryDx=0;entryDy=0;entryPerimeter=0;" parent="1" target="S-pnIlsCrrtqywDC8EOS-4" edge="1">
          <mxGeometry width="80" relative="1" as="geometry">
            <mxPoint x="349" y="283" as="sourcePoint" />
            <mxPoint x="489" y="279.99999999999994" as="targetPoint" />
          </mxGeometry>
        </mxCell>
        <mxCell id="mJ_MDuSwQOCXob1QKFZ1-4" value="" style="shape=umlLifeline;participant=umlActor;perimeter=lifelinePerimeter;whiteSpace=wrap;html=1;container=0;collapsible=0;recursiveResize=0;verticalAlign=top;spacingTop=36;outlineConnect=0;fontFamily=Helvetica;fontSize=12;fontColor=default;align=center;strokeColor=default;fillColor=default;size=50;" parent="1" vertex="1">
          <mxGeometry x="315" y="250" width="30" height="240" as="geometry" />
        </mxCell>
        <mxCell id="BHGGA8FH1MstIcf6RSHf-15" value="Admin" style="text;html=1;align=center;verticalAlign=middle;resizable=0;points=[];autosize=1;strokeColor=none;fillColor=none;container=0;" parent="1" vertex="1">
          <mxGeometry x="300" y="217.5" width="60" height="30" as="geometry" />
        </mxCell>
        <mxCell id="S-pnIlsCrrtqywDC8EOS-4" value="" style="html=1;points=[];perimeter=orthogonalPerimeter;container=0;" parent="1" vertex="1">
          <mxGeometry x="500" y="280" width="10" height="30" as="geometry" />
        </mxCell>
        <mxCell id="S-pnIlsCrrtqywDC8EOS-5" value="&lt;font style=&quot;font-size: 11px;&quot;&gt;verify&lt;/font&gt;" style="edgeStyle=orthogonalEdgeStyle;html=1;align=left;spacingLeft=2;endArrow=block;rounded=0;exitX=1.22;exitY=0.045;exitDx=0;exitDy=0;exitPerimeter=0;entryX=0.953;entryY=0.985;entryDx=0;entryDy=0;entryPerimeter=0;" parent="1" source="S-pnIlsCrrtqywDC8EOS-4" target="S-pnIlsCrrtqywDC8EOS-4" edge="1">
          <mxGeometry x="-0.004" relative="1" as="geometry">
            <mxPoint x="490" y="289.3134482758621" as="sourcePoint" />
            <Array as="points">
              <mxPoint x="556" y="281" />
              <mxPoint x="556" y="310" />
            </Array>
            <mxPoint x="486" y="307.93413793103446" as="targetPoint" />
            <mxPoint as="offset" />
          </mxGeometry>
        </mxCell>
        <mxCell id="S-pnIlsCrrtqywDC8EOS-8" value="redirect home.php" style="html=1;verticalAlign=bottom;endArrow=open;dashed=1;endSize=8;rounded=0;elbow=vertical;" parent="1" edge="1">
          <mxGeometry x="-0.007" y="20" relative="1" as="geometry">
            <mxPoint x="494" y="310.13" as="sourcePoint" />
            <mxPoint x="345" y="309.99655172413793" as="targetPoint" />
            <mxPoint as="offset" />
            <Array as="points">
              <mxPoint x="460" y="310.13" />
            </Array>
          </mxGeometry>
        </mxCell>
      </root>
    </mxGraphModel>
  </diagram>
</mxfile>
